<?xml version="1.0" encoding="UTF-8"?>
<svg id="Camada_1" data-name="Camada 1" xmlns="http://www.w3.org/2000/svg" viewBox="0 0 288.17 512">
  <defs>
    <style>
      .cls-1 {
        fill: #e95a56;
      }

      .cls-2 {
        fill: #70b057;
      }
    </style>
  </defs>
  <path class="cls-1" d="M0,510.65c.89.45.89.9,0,1.35v-1.35Z"/>
  <path class="cls-1" d="M233.04,174.54c-26.34,22.69-47.13,55-62.73,84.91-29.69,56.92-47.48,122.01-76.74,179.99v58.75c78.86-76.2,108.36-208.77,144.15-305.42,3.76-10.16,7.57-21.69,13.58-30.44h0c-2-1.55-15.77,10.09-18.26,12.22Z"/>
  <path class="cls-2" d="M221.15,98.88c-14.14,2.62-23.31,8.48-35.32,14.87-39.03,20.77-68.36,49.67-92.26,82.92v150.73c20.65-47.8,38.81-97.09,63.17-139.53,21.85-38.08,49.03-83.17,89.37-102.7l9.26-6.6h.03c-10.59-2.1-23.64-1.66-34.23.3Z"/>
  <path class="cls-1" d="M287.92,31.96h.03C226.72-9.28,155.89-7.6,93.57,19.84v105.58c10.34-12.67,21.73-24.71,34.49-35.93,40.78-35.87,100.58-58.31,155.18-56.25,3.5.14,5.7.41,4.69-1.28Z"/>
</svg>