<?xml version="1.0" encoding="UTF-8"?>
<svg id="Camada_1" xmlns="http://www.w3.org/2000/svg" version="1.1" viewBox="0 0 1080 315.38">
  <!-- Generator: Adobe Illustrator 29.6.1, SVG Export Plug-In . SVG Version: 2.1.1 Build 9)  -->
  <defs>
    <style>
      .st0 {
        fill: #e95b57;
      }

      .st1 {
        fill: #72b157;
      }

      .st2 {
        fill: #774c4e;
      }
    </style>
  </defs>
  <path class="st0" d="M399.2,134.26c-51.6,0-72.65,24.55-72.65,84.72s21.3,83.26,71.2,83.26c28.74,0,63-8.12,63-46.84,0-20.86-10.11-31.88-29.22-31.88-11.73,0-15.43,4.07-19.01,8.02-2.89,3.18-5.87,6.46-12.11,6.46-14.92,0-14.92-18.86-14.92-25.06,0-10.34,1.57-24.09,15.16-24.09,6.05,0,8.95,2.77,11.76,5.45,3.4,3.25,6.93,6.61,18.16,6.61,18.43,0,27.78-9.1,27.78-27.05,0-32.73-32.16-39.6-59.14-39.6"/>
  <path class="st0" d="M606.02,216.51c-1.2-4.86-2.38-11.08-3.63-17.66-2-10.52-4.27-22.45-6.91-30.08-8.9-25.79-22.1-34.5-52.3-34.5s-43.4,8.71-52.3,34.5c-2.64,7.64-4.91,19.56-6.91,30.08-1.25,6.58-2.43,12.8-3.63,17.68l-1.47,6.06c-4.64,19.04-10.99,45.12-10.99,61.77,0,12.12,4.01,17.89,26.81,17.89,26.38,0,32.17-6.5,34.08-19.29,1.18-8.24,5.76-12.08,14.41-12.08s13.24,3.85,14.42,12.11c1.91,12.77,7.7,19.26,34.08,19.26,22.8,0,26.81-5.77,26.81-17.89,0-16.65-6.35-42.73-10.99-61.77l-1.47-6.07ZM553.4,238.35c-2.29,2.45-5.72,3.7-10.21,3.7s-7.93-1.24-10.22-3.7c-2.51-2.7-3.54-6.64-3.15-12.05.98-10.79,1.89-20.4,3.11-29.24l.35-2.72c1.03-8.24,2.1-16.76,9.91-16.76s8.88,8.51,9.91,16.74l.35,2.75c1.22,8.85,2.13,18.45,3.11,29.18.39,5.47-.65,9.42-3.16,12.11Z"/>
  <path class="st0" d="M660.24,302.25c24.43,0,31.88-6.27,31.88-26.81,0-5.42-.53-12.62-1.14-20.95-.82-11.13-1.75-23.75-1.75-36.47s.93-25.2,1.75-36.2c.62-8.23,1.14-15.34,1.14-20.75,0-20.55-7.45-26.81-31.88-26.81s-31.88,6.26-31.88,26.81c0,5.41.54,12.52,1.15,20.75.82,11,1.76,23.47,1.76,36.2s-.93,25.34-1.75,36.47c-.61,8.34-1.15,15.53-1.15,20.95,0,20.54,7.45,26.81,31.88,26.81"/>
  <path class="st0" d="M776.02,134.26c-52.29,0-73.62,24.33-73.62,83.99s21.32,83.99,73.62,83.99,73.37-24.33,73.37-83.99-21.26-83.99-73.37-83.99M776.04,247.89c-13.93,0-16.65-12.64-16.65-34.46s2.73-34.47,16.65-34.47,16.37,13.19,16.37,34.47-2.74,34.46-16.37,34.46Z"/>
  <path class="st0" d="M938.28,264.39c2.39,6.42,5.11,13.69,8.73,19.99,6.33,10.71,14.45,17.87,33.47,17.87s26.57-7.58,26.57-28.98c0-9.06-.73-18.32-1.44-27.28-.71-9.07-1.46-18.44-1.46-27.73,0-9.99.74-20.1,1.46-29.88.71-9.68,1.44-19.68,1.44-29.47,0-18.88-7.16-24.64-30.67-24.64-25.46,0-29.94,6.55-29.94,20.3,0,8.43,2.02,15.46,3.64,21.12,1.15,4.01,2.14,7.47,2.14,10.48,0,5.11-3.02,8.41-7.69,8.41-8.49,0-12.34-10.38-16.8-22.38-3.37-9.07-7.19-19.35-13.4-26.91-4.58-5.74-11.13-11.02-27.94-11.02-20.33,0-27.54,7.58-27.54,28.98,0,9.06.73,18.33,1.44,27.29.71,9.07,1.46,18.44,1.46,27.73,0,10-.74,20.11-1.46,29.88-.7,9.68-1.44,19.68-1.44,29.46,0,19.12,6.88,24.65,30.67,24.65,25.46,0,29.95-6.55,29.95-20.3,0-8.43-2.02-15.47-3.65-21.13-1.15-4-2.14-7.47-2.14-10.48,0-5.11,3.02-8.41,7.69-8.41,8.53,0,12.41,10.41,16.91,22.45"/>
  <path class="st0" d="M1048.12,302.25c24.43,0,31.88-6.27,31.88-26.81,0-5.42-.53-12.62-1.14-20.95-.82-11.13-1.75-23.75-1.75-36.47s.93-25.2,1.75-36.2c.61-8.23,1.14-15.34,1.14-20.75,0-20.55-7.45-26.81-31.88-26.81s-31.88,6.26-31.88,26.81c0,5.41.53,12.52,1.14,20.75.82,11,1.75,23.47,1.75,36.2s-.93,25.34-1.75,36.47c-.61,8.34-1.15,15.53-1.15,20.95,0,20.54,7.45,26.81,31.88,26.81"/>
  <path class="st0" d="M247.24,38.23c4.84-12.88,11.31-26.8,28.07-21.52,22.34,7.03,16.93,46.06,10.13,62.94-24.13-12.8-50.13-17.65-76.68-8.63-23.88,8.11-33.71,30.86-62.38,17.82-29.33-13.35-19.83-51.4,13.89-51.5,10.59-.03,18.76,5.04,28.92,5.48-12.41-30.12,19.1-45.12,41.85-26.87,7.31,5.87,11.5,14.39,16.21,22.29"/>
  <path class="st0" d="M-.67,302.66c59.43-13.58,94.76-55.25,116.09-107.41,14.28-35.93,33.91-71.09,68.56-95.03,28.88-20.7,73.67-26.38,102.06-3.53-31.35-1.87-58.35,10.42-78.44,32.28-31.72,31.85-42.47,82.53-68.44,119.9-29.09,43.57-90.36,74.18-139.84,53.78"/>
  <path class="st1" d="M275.62,114.53c-21.37,8.63-32.57,28.69-43.48,47.48-28.36,49.23-38.36,120.9-99.63,141.61-12.01,3.79-24.96,5.43-36.63,1.9,33.62-11.05,52.93-35.9,67.22-65.07,14.32-31.76,25.41-65.13,49.38-92.3,15.34-17.4,38.16-37.81,63.14-33.62"/>
  <path class="st2" d="M272.49,132.43c-23.66,58.42-37.93,150.82-108.61,168.69,61.13-38.68,51.76-126.92,108.61-168.69"/>
  <path class="st2" d="M360.83,113.43c-6.18,0-11.6-1.32-16.28-3.94-4.68-2.63-8.3-6.31-10.87-11.04-2.58-4.74-3.85-10.25-3.85-16.55,0-4.73.73-9.04,2.2-12.9,1.48-3.87,3.58-7.19,6.33-9.96,2.74-2.78,6.02-4.89,9.83-6.36,3.81-1.48,8.02-2.21,12.65-2.21,6.18,0,11.59,1.3,16.23,3.9,4.65,2.6,8.27,6.25,10.88,10.96,2.59,4.7,3.89,10.23,3.89,16.58,0,4.74-.73,9.04-2.21,12.91-1.48,3.86-3.59,7.2-6.33,10-2.74,2.8-6.02,4.94-9.83,6.41-3.81,1.47-8.02,2.21-12.65,2.21M360.83,100.09c3.06,0,5.66-.73,7.8-2.17,2.13-1.44,3.78-3.52,4.93-6.23,1.15-2.72,1.74-5.98,1.74-9.79,0-5.72-1.27-10.16-3.81-13.34-2.55-3.17-6.09-4.76-10.66-4.76-3,0-5.59.7-7.75,2.11-2.17,1.42-3.83,3.47-4.98,6.15-1.16,2.69-1.73,5.96-1.73,9.83,0,5.72,1.27,10.18,3.81,13.39,2.54,3.2,6.09,4.81,10.65,4.81Z"/>
  <path class="st2" d="M426.28,113.26c-2.19,0-3.97-.46-5.33-1.39-1.35-.92-2.5-2.39-3.42-4.41l-20.96-46.25c-.93-2.02-1.21-3.84-.87-5.46.34-1.61,1.15-2.87,2.42-3.76,1.27-.9,2.86-1.34,4.77-1.34,2.37,0,4.14.52,5.33,1.56,1.18,1.04,2.21,2.57,3.07,4.6l17.67,40.87h-4.85l17.67-40.97c.87-2.02,1.91-3.53,3.12-4.54,1.21-1.01,2.91-1.52,5.11-1.52,1.79,0,3.29.45,4.5,1.34,1.21.89,1.98,2.15,2.3,3.76.31,1.62.02,3.44-.91,5.46l-21.05,46.25c-.87,2.02-1.96,3.5-3.29,4.41-1.33.93-3.09,1.39-5.29,1.39"/>
  <path class="st2" d="M491.66,113.43c-6.18,0-11.6-1.32-16.28-3.94-4.68-2.63-8.3-6.31-10.88-11.04-2.56-4.74-3.85-10.25-3.85-16.55,0-4.73.74-9.04,2.2-12.9,1.48-3.87,3.59-7.19,6.33-9.96,2.74-2.78,6.02-4.89,9.83-6.36,3.81-1.48,8.02-2.21,12.65-2.21,6.18,0,11.59,1.3,16.24,3.9,4.65,2.6,8.28,6.25,10.87,10.96,2.6,4.7,3.9,10.23,3.9,16.58,0,4.74-.74,9.04-2.21,12.91-1.48,3.86-3.58,7.2-6.33,10-2.74,2.8-6.02,4.94-9.83,6.41-3.81,1.47-8.03,2.21-12.65,2.21M491.66,100.09c3.07,0,5.66-.73,7.8-2.17,2.14-1.44,3.79-3.52,4.94-6.23,1.16-2.72,1.73-5.98,1.73-9.79,0-5.72-1.26-10.16-3.81-13.34-2.54-3.17-6.09-4.76-10.65-4.76-3.01,0-5.58.7-7.75,2.11-2.16,1.42-3.82,3.47-4.98,6.15-1.16,2.69-1.73,5.96-1.73,9.83,0,5.72,1.27,10.18,3.8,13.39,2.55,3.2,6.09,4.81,10.66,4.81Z"/>
  <path class="st2" d="M554.46,113.43c-2.31,0-4.73-.16-7.23-.48-2.51-.32-4.89-.79-7.15-1.43-2.25-.63-4.27-1.38-6.06-2.25-1.56-.75-2.66-1.75-3.29-2.99-.64-1.24-.87-2.56-.7-3.95.18-1.38.67-2.61,1.48-3.68.81-1.07,1.87-1.79,3.2-2.16s2.83-.19,4.5.56c2.19,1.05,4.67,1.85,7.45,2.43,2.78.58,5.37.87,7.8.87,3.81,0,6.48-.5,8.01-1.51,1.53-1.01,2.29-2.26,2.29-3.77,0-1.32-.54-2.39-1.6-3.2-1.06-.81-2.96-1.5-5.67-2.07l-10.14-2.17c-5.54-1.15-9.67-3.17-12.38-6.07-2.72-2.89-4.07-6.61-4.07-11.17,0-3,.62-5.73,1.87-8.18,1.24-2.46,3-4.55,5.28-6.28,2.28-1.73,4.99-3.07,8.14-4.03,3.15-.95,6.66-1.43,10.52-1.43,3,0,6.05.33,9.14,1,3.09.66,5.76,1.66,8.01,2.98,1.32.7,2.28,1.64,2.85,2.86.58,1.21.82,2.47.7,3.77-.12,1.3-.57,2.44-1.34,3.42-.78.98-1.82,1.63-3.12,1.96-1.3.32-2.84.09-4.63-.65-1.68-.75-3.56-1.32-5.67-1.69-2.11-.38-4.14-.56-6.11-.56-2.14,0-3.96.25-5.45.74-1.51.49-2.64,1.2-3.43,2.12-.78.93-1.17,1.99-1.17,3.21s.5,2.23,1.51,3.07c1.01.84,2.87,1.54,5.59,2.12l10.05,2.16c5.6,1.21,9.79,3.2,12.56,5.98,2.77,2.76,4.16,6.38,4.16,10.83,0,3-.61,5.71-1.82,8.14-1.21,2.42-2.94,4.49-5.19,6.19-2.25,1.7-4.97,3.02-8.14,3.94-3.18.93-6.75,1.39-10.74,1.39"/>
</svg>