<?xml version="1.0" encoding="UTF-8"?>
<svg id="Camada_1" xmlns="http://www.w3.org/2000/svg" version="1.1" viewBox="0 0 512 512">
  <!-- Generator: Adobe Illustrator 29.6.1, SVG Export Plug-In . SVG Version: 2.1.1 Build 9)  -->
  <defs>
    <style>
      .st0 {
        fill: #ea5655;
      }

      .st1 {
        fill: #732422;
      }

      .st2 {
        fill: #68ad4f;
      }
    </style>
  </defs>
  <path class="st0" d="M499.5,149.31c.74,1.24-.87,1.04-3.44.94-40.05-1.51-83.91,14.95-113.82,41.26-59.31,52.16-78.36,128.44-116.2,194.04-1.57,2.72-6.62,11.62-7.45,13.21-10.45,20.01-32.93,43.51-50.21,58.1-13.89,11.72-52.18,33.77-53.87,34.55-9.65,4.46-20.79,8.8-31.6,12.14-27.64,8.54-60.1,10.6-89.46,4.01-2.51-.56-19.09-4.81-19.84-5.51-1.71-1.6.38-1.69,1.45-2,6.02-1.77,12.36-2.59,18.42-4.45,79.36-24.4,134.1-83.33,168.62-157.31,29.61-63.45,46.7-114.35,100.66-162.67,54.18-48.52,132.64-69.5,196.76-26.3Z"/>
  <path class="st0" d="M398.81,7.54c4.4,3.07,13.68,10.11,17.06,14.2,7.16,8.65,11.94,20.11,18.57,29.18l12.99-24.75c14.99-20.72,43.9-14.99,55.35,6.13,14.37,26.5,6.29,62-2.28,89.18-.76.56-12.95-6.12-15.34-7.01-35.99-13.4-68.55-20.11-107.09-9.6-24.12,6.57-40.26,22.18-61.13,32.53-22.39,11.11-39.64,7.98-61.09-3.12-19.36-10.02-26.5-31.72-20.36-52.76,3.27-11.2,17.63-23.07,28.55-27.1,24.19-8.92,45.81.22,69.53,4.45-1.37-10.89-4.53-19.89-1.71-31.03C338.88,0,377.51-7.34,398.81,7.54Z"/>
  <path class="st2" d="M481.62,181.1l-6.79,4.84c-29.59,14.33-49.52,47.4-65.55,75.33-42.11,73.37-58.96,174.69-134.03,223.7-27.49,17.95-64.06,29.12-96.69,21.04l24.5-10.76c5.57-2.86,22.88-13.11,32.21-22.45,11.28-11.29,44.87-54.26,57.42-80.69,35.02-73.77,60.46-158.66,137.93-199.88,8.81-4.69,15.54-8.99,25.91-10.91,7.77-1.44,17.34-1.76,25.11-.22Z"/>
  <path class="st1" d="M478.64,212.9c-4.41,6.42-7.2,14.88-9.96,22.33-30.9,83.44-55.39,203.39-140.07,249.45-10.05,5.47-21.51,10.31-32.81,12.39,14.37-11.32,28.23-22.95,39.71-37.29,40.61-50.76,54.07-118.77,83.73-175.64,11.44-21.94,26.69-45.64,46.01-62.28,1.82-1.56,11.92-10.1,13.39-8.96Z"/>
  <path class="st0" d="M294.32,497.08c.65.33.65.66,0,.99v-.99Z"/>
</svg>